<?xml version="1.0" encoding="utf-8"?>
<!-- Generator: Adobe Illustrator 20.1.0, SVG Export Plug-In . SVG Version: 6.00 Build 0)  -->
<svg version="1.1" id="Capa_1" xmlns="http://www.w3.org/2000/svg" xmlns:xlink="http://www.w3.org/1999/xlink" x="0px" y="0px"
	 viewBox="0 0 455.6 116.2" style="enable-background:new 0 0 455.6 116.2;" xml:space="preserve">
<style type="text/css">
	.st0{fill:#030203;}
</style>
<g>
	<path class="st0" d="M22.4,115.6h9.9v0.5H0v-0.5h10.1v-81H0v-0.5h10.1v-3.8c0-18.2,7.5-30.2,21.1-30.2c11.7,0,17.1,7.3,17.1,16.4
		c0,5.6-3.8,9.9-8.5,9.9c-5,0-8.1-3.4-8.1-7.8c0-5.3,3.8-8.3,8-8.3c2.6,0,4.3,1.3,4.8,1.3s0.8-0.3,0.8-0.8c0-3.4-3.4-10.4-14.1-10.4
		c-9.6,0-16.3,7-16.3,16.9c0,6.5,1.6,11.3,3.2,16.8h22.4v0.5H18.3c2.1,6.5,4.2,14.2,4.2,27.3L22.4,115.6L22.4,115.6z"/>
	<path class="st0" d="M61,53.6c0,4.5-3.4,8.1-8.5,8.1c-4.6,0-8.1-3.8-8.1-9.1c0-9.6,9.6-21.1,26.7-21.1c18.5,0,29.4,12.5,29.4,31
		v40.7c0,5.1,3,7.5,6.7,7.5c4,0,7-3,7.5-7.5h0.5c-0.3,4.6-4.2,12.8-13.4,12.8c-8.3,0-12.6-4.8-13.4-15.3c-3.2,7-12.3,15.3-25.1,15.3
		c-11.3,0-21.4-6.9-21.4-19.3c0-30.2,47.9-16.3,47.9-46.9c0-11.3-7.3-17.4-21.1-17.4c-14.1,0-21.2,10.2-21.2,13.6
		c0,0.5,0.3,0.8,0.8,0.8s2.2-1.3,4.8-1.3C57,45.5,61,48.4,61,53.6z M88.1,60.4C79.2,75,54.7,73,54.7,95.6c0,9.7,6.4,16,15.8,16
		c10.7,0,17.6-7.7,17.6-16.3L88.1,60.4L88.1,60.4z"/>
	<path class="st0" d="M168.1,98.4c0-25.1-47.1-15.6-47.1-43.6c0-13.9,11-23.2,28.3-23.2c11,0,14.9,4.3,21.1,4.3
		c2.9,0,4.5-1.8,4.5-4.3h0.5V57h-0.5c-3.2-14.1-9.7-24.8-25.5-24.8c-12,0-18.7,7.5-18.7,16.4c0,25.2,47.1,15.6,47.1,43.6
		c0,13.7-12.6,23.8-28.1,23.8c-14.1,0-16.9-6.4-25.1-6.4c-2.9,0-4.5,1.8-4.5,4.3h-0.5V88.7h0.5c2.9,15.2,13.7,26.8,29.5,26.8
		C161.7,115.5,168.1,108.2,168.1,98.4z"/>
	<path class="st0" d="M237.9,52.5c0-10.7-6.1-16.6-15.8-16.6c-12.1,0-19.8,11.3-19.8,22.2v57.5h9.9v0.5h-32.3v-0.5H190V0.8h-10.1V0
		h22.4v50.4c2.9-7.8,11.7-16.9,24.8-16.9c15.8,0,23.3,12,23.3,30.3v51.7h9.7v0.5h-32.3v-0.5h10.1L237.9,52.5L237.9,52.5z"/>
	<path class="st0" d="M284.8,115.7h9.9v0.5h-32.3v-0.5h10.1V35.1h-10.1v-0.5h22.4V115.7z M278.3,16.3c-4.5,0-7.7-3.4-7.7-8
		c0-4.8,3.5-8.3,7.7-8.3c4.6,0,7.8,3.4,7.8,8.1S282.6,16.3,278.3,16.3z"/>
	<path class="st0" d="M335.6,116.2c-21.2,0-36.9-18.4-36.9-41.7c0-23.5,17.1-42.5,37.7-42.5c21.2,0,36.9,18.2,36.9,41.5
		C373.2,97,356.2,116.2,335.6,116.2z M336.4,32.6c-16.6,0-24.4,17.6-24.4,41c0,23.3,7.8,41.8,23.6,41.8c16.6,0,24.4-17.7,24.4-41.2
		C360,51,352.2,32.6,336.4,32.6z"/>
	<path class="st0" d="M433.4,52.5c0-10.7-6.1-16.6-15.8-16.6c-12.1,0-19.8,11.3-19.8,22.2v57.5h9.9v0.5h-32.3v-0.5h10.1v-80h-10.1
		v-0.5h22.4v15.3c2.9-7.8,11.7-16.9,24.8-16.9c15.8,0,23.3,12,23.3,30.3v51.7h9.7v0.5h-32.3v-0.5h10.1L433.4,52.5L433.4,52.5z"/>
</g>
</svg>
